<svg width="430" height="163" viewBox="0 0 430 163" fill="none" xmlns="http://www.w3.org/2000/svg">
<path d="M94.8594 112.551H81.5061C80.4865 112.551 79.6631 111.722 79.6631 110.708V61.4058C79.6631 60.3862 80.4919 59.5628 81.5061 59.5628H94.8594C95.8791 59.5628 96.7024 60.3862 96.7024 61.4058V110.708C96.7024 111.722 95.8791 112.551 94.8594 112.551ZM35.4211 111.913L57.5585 67.8616C58.0165 66.951 57.6512 65.8442 56.7406 65.3862L44.8104 59.3883C43.8998 58.9303 42.7929 59.2956 42.3349 60.2062L20.1975 104.257C19.7395 105.168 20.1048 106.275 21.0154 106.733L32.9456 112.731C33.8562 113.183 34.9631 112.818 35.4211 111.913ZM68.1855 111.738L77.6566 63.7231C77.8529 62.7253 77.2095 61.7602 76.2117 61.5585L63.1201 58.914C62.1223 58.7122 61.1463 59.3611 60.9445 60.3589V60.3644L51.4734 108.38C51.2771 109.377 51.9205 110.342 52.9183 110.544L66.0099 113.189C67.0078 113.39 67.9838 112.742 68.1855 111.744C68.1855 111.744 68.1855 111.744 68.1855 111.738Z" fill="#6B7280"/>
<mask id="mask0_19_111" style="mask-type:luminance" maskUnits="userSpaceOnUse" x="20" y="58" width="77" height="56">
<path d="M94.8594 112.551H81.5061C80.4865 112.551 79.6631 111.722 79.6631 110.708V61.4058C79.6631 60.3862 80.4919 59.5628 81.5061 59.5628H94.8594C95.8791 59.5628 96.7024 60.3862 96.7024 61.4058V110.708C96.7024 111.722 95.8791 112.551 94.8594 112.551ZM35.4211 111.913L57.5585 67.8616C58.0165 66.951 57.6512 65.8442 56.7406 65.3862L44.8104 59.3883C43.8998 58.9303 42.7929 59.2956 42.3349 60.2062L20.1975 104.257C19.7395 105.168 20.1048 106.275 21.0154 106.733L32.9456 112.731C33.8562 113.183 34.9631 112.818 35.4211 111.913ZM68.1855 111.738L77.6566 63.7231C77.8529 62.7253 77.2095 61.7602 76.2117 61.5585L63.1201 58.914C62.1223 58.7122 61.1463 59.3611 60.9445 60.3589V60.3644L51.4734 108.38C51.2771 109.377 51.9205 110.342 52.9183 110.544L66.0099 113.189C67.0078 113.39 67.9838 112.742 68.1855 111.744C68.1855 111.744 68.1855 111.744 68.1855 111.738Z" fill="white"/>
</mask>
<g mask="url(#mask0_19_111)">
<path d="M101.359 54.2192H15.3281V117.889H101.359V54.2192Z" fill="#6B7280"/>
<mask id="mask1_19_111" style="mask-type:luminance" maskUnits="userSpaceOnUse" x="15" y="54" width="87" height="64">
<path d="M101.359 54.2192H15.3281V117.889H101.359V54.2192Z" fill="white"/>
</mask>
<g mask="url(#mask1_19_111)">
<path d="M101.359 54.2192H15.3281V117.889H101.359V54.2192Z" fill="#6B7280"/>
<mask id="mask2_19_111" style="mask-type:luminance" maskUnits="userSpaceOnUse" x="15" y="54" width="87" height="64">
<path d="M101.359 54.2192H15.3281V117.889H101.359V54.2192Z" fill="white"/>
</mask>
<g mask="url(#mask2_19_111)">
<path d="M101.391 53.783H15.0664V118.194H101.391V53.783Z" fill="#6B7280"/>
</g>
</g>
</g>
<path d="M139.224 79.031V110.168C139.224 111.182 138.401 112 137.381 112H123.843C122.823 112 122 111.176 122 110.168V60.9967C122 59.9833 122.829 59.1651 123.843 59.1651H137.381C138.401 59.1651 139.224 59.9833 139.224 60.9967V64.8713C142.627 60.6445 147.414 58 154.109 58C160.385 58 165.805 60.5361 169.103 65.2939C173.144 60.5361 178.885 58 185.902 58C197.81 58 206 64.9742 206 78.2886V110.163C206 111.176 205.177 111.995 204.157 111.995H190.619C189.599 111.995 188.776 111.176 188.776 110.163V81.876C188.776 76.0614 185.477 73.211 181.012 73.211C177.288 73.211 174.311 75.5358 172.609 79.0256V110.163C172.609 111.176 171.786 111.995 170.766 111.995H157.234C156.214 111.995 155.391 111.171 155.391 110.163V81.876C155.391 76.0614 152.097 73.211 147.626 73.211C143.799 73.2219 140.931 75.5466 139.224 79.031Z" fill="#6B7280"/>
<path d="M228.351 113C218.382 113 210 106.506 210 96.45C210 87.2323 216.152 82.9351 227.606 80.0022L242.242 76.2313C241.818 72.7773 239.061 71.096 234.606 71.096C230.657 71.096 227.818 72.5893 226.513 75.5706C226.17 76.4085 225.267 76.8759 224.375 76.6825L212.774 73.9591C211.779 73.7281 211.164 72.7451 211.403 71.7621C211.42 71.6923 211.441 71.6278 211.463 71.5633C214.797 62.6626 224.049 58 235.242 58C250.303 58 259 65.0207 259 77.3808V110.132C259 111.136 258.179 111.947 257.162 111.947H244.358C243.357 111.947 242.542 111.158 242.52 110.169L242.455 107.44L242.351 107.542C238.005 111.217 233.763 113 228.351 113ZM232.697 99.904C234.927 99.904 236.618 99.2755 239.164 97.8091L242.134 96.0311L242.237 87.5439L234.601 89.6388C229.401 91.1053 227.073 92.3622 227.073 95.2951C227.078 98.545 229.939 99.904 232.697 99.904Z" fill="#6B7280"/>
<path d="M286.286 87.1189L281.033 91.8649V110.168C281.033 111.178 280.203 111.995 279.176 111.995H265.857C264.83 111.995 264 111.178 264 110.168V43.827C264 42.8162 264.83 42 265.857 42H279.176C280.203 42 281.033 42.8162 281.033 43.827V73.8378L296.571 59.773C296.912 59.4595 297.362 59.2919 297.829 59.2919H314.274C315.302 59.2919 316.131 60.1081 316.131 61.1189C316.131 61.6324 315.912 62.1243 315.527 62.4703L299.571 76.7892L317.769 109.286C318.263 110.173 317.939 111.286 317.038 111.773C316.763 111.924 316.456 112 316.142 112H300.593C299.901 112 299.263 111.622 298.945 111.016L286.286 87.1189Z" fill="#6B7280"/>
<path d="M342.678 113C327.689 113 314 103.884 314 85.449C314 68.061 327.153 58 341.6 58C356.588 58 367.475 68.1631 367.906 84.1866C367.956 85.8787 367.983 87.0604 368 87.8984C368.016 88.8975 367.193 89.7194 366.159 89.7355C366.148 89.7355 366.137 89.7355 366.125 89.7355H331.244C331.786 96.0203 336.961 100.001 343.535 100.001C347.936 100.097 352.11 98.1206 354.736 94.6935C355.333 93.9361 356.434 93.7589 357.246 94.2907L365.96 99.9577C366.822 100.527 367.049 101.671 366.463 102.509L366.457 102.515C361.796 109.202 354.1 113 342.678 113ZM331.576 79.4811H350.446C350.341 73.5079 345.807 70.8919 341.063 70.8919C336.64 70.8919 332.112 73.4058 331.576 79.4811Z" fill="#6B7280"/>
</svg>
