<svg width="406" height="163" viewBox="0 0 406 163" fill="none" xmlns="http://www.w3.org/2000/svg">
<g clip-path="url(#clip0_19_345)">
<path d="M131.46 80.0364C131.46 96.7134 142.109 108.341 156.867 108.341C171.624 108.341 182.273 96.7134 182.273 80.0364C182.273 63.3594 171.624 51.7314 156.867 51.7314C142.109 51.7314 131.46 63.3594 131.46 80.0364ZM172.537 80.0364C172.537 91.9704 166.071 99.697 156.867 99.697C147.662 99.697 141.197 91.9704 141.197 80.0364C141.197 68.1024 147.662 60.3759 156.867 60.3759C166.071 60.3759 172.537 68.1024 172.537 80.0364Z" fill="#6B7280"/>
<path d="M209.693 108.342C220.874 108.342 227.264 98.8555 227.264 87.457C227.264 76.0585 220.874 66.5725 209.693 66.5725C204.52 66.5725 200.717 68.638 198.206 71.6215V67.3375H189.078V121.27H198.206V103.293C200.717 106.276 204.52 108.342 209.693 108.342ZM197.978 86.3095C197.978 78.736 202.238 74.605 207.867 74.605C214.485 74.605 218.06 79.807 218.06 87.457C218.06 95.107 214.485 100.309 207.867 100.309C202.238 100.309 197.978 96.1015 197.978 88.681V86.3095Z" fill="#6B7280"/>
<path d="M251.967 108.342C259.954 108.342 266.268 104.134 269.082 97.096L261.247 94.1125C260.03 98.2435 256.455 100.539 251.967 100.539C246.11 100.539 242.002 96.331 241.318 89.446H269.311V86.386C269.311 75.37 263.149 66.5725 251.587 66.5725C240.024 66.5725 232.57 75.676 232.57 87.457C232.57 99.85 240.557 108.342 251.967 108.342ZM251.511 74.299C257.292 74.299 260.03 78.124 260.106 82.561H241.774C243.143 77.1295 246.795 74.299 251.511 74.299Z" fill="#6B7280"/>
<path d="M276.16 107.5H285.288V83.938C285.288 78.2005 289.472 75.1405 293.579 75.1405C298.6 75.1405 300.577 78.736 300.577 83.7085V107.5H309.706V81.031C309.706 72.3865 304.685 66.5725 296.318 66.5725C291.145 66.5725 287.57 68.944 285.288 71.6215V67.3375H276.16V107.5Z" fill="#6B7280"/>
<path d="M336.44 52.573L315.75 107.5H325.411L330.051 94.954H353.632L358.348 107.5H368.161L347.47 52.573H336.44ZM341.765 63.436L350.437 86.386H333.246L341.765 63.436Z" fill="#6B7280"/>
<path d="M383.83 52.7324H374.094V107.659H383.83V52.7324Z" fill="#6B7280"/>
<path d="M109.153 72.7467C111.454 65.8011 110.661 58.1925 106.982 51.8749C101.448 42.1849 90.3227 37.1997 79.4577 39.5457C74.6242 34.0695 67.6799 30.9554 60.3996 31C49.2937 30.9745 39.4397 38.1655 36.023 48.7926C28.8885 50.262 22.7302 54.7532 19.1264 61.1187C13.5513 70.7832 14.8223 82.9658 22.2706 91.2533C19.9695 98.1989 20.7619 105.807 24.4417 112.125C29.9756 121.815 41.1005 126.8 51.9655 124.454C56.7959 129.93 63.7434 133.045 71.0237 132.997C82.1359 133.025 91.9931 125.828 95.4098 115.191C102.544 113.722 108.703 109.231 112.306 102.865C117.875 93.2009 116.601 81.0278 109.156 72.7403L109.153 72.7467ZM71.03 126.332C66.5832 126.338 62.2759 124.773 58.8624 121.907C59.0177 121.825 59.2871 121.675 59.4614 121.566L79.6574 109.836C80.6907 109.247 81.3246 108.141 81.3182 106.945V78.312L89.8537 83.2686C89.9456 83.3132 90.0058 83.4025 90.0185 83.5045V107.216C90.0058 117.761 81.5147 126.309 71.03 126.332ZM30.1943 108.791C27.9662 104.921 27.1643 100.385 27.9281 95.9835C28.0771 96.0728 28.3402 96.2354 28.5272 96.3437L48.7232 108.074C49.7469 108.676 51.0147 108.676 52.0416 108.074L76.6971 93.7555V103.669C76.7034 103.771 76.6559 103.869 76.5767 103.933L56.162 115.787C47.0687 121.053 35.4557 117.923 30.1975 108.791H30.1943ZM24.8791 64.456C27.0977 60.58 30.6 57.6156 34.7711 56.076C34.7711 56.2514 34.7615 56.5606 34.7615 56.7773V80.2405C34.7552 81.4326 35.3891 82.5387 36.4192 83.1284L61.0747 97.4434L52.5392 102.4C52.4536 102.457 52.3459 102.467 52.2508 102.425L31.8329 90.5616C22.7587 85.2767 19.6462 73.6009 24.8759 64.4592L24.8791 64.456ZM95.0072 80.8684L70.3518 66.5502L78.8872 61.5968C78.9728 61.5394 79.0805 61.5299 79.1756 61.5713L99.5935 73.4256C108.684 78.7073 111.799 90.4022 106.547 99.544C104.326 103.414 100.826 106.378 96.6586 107.921V83.7563C96.6681 82.5642 96.0373 81.4613 95.0104 80.8684H95.0072ZM103.501 68.0101C103.353 67.9176 103.089 67.7582 102.902 67.6499L82.7064 55.9199C81.6827 55.3174 80.4149 55.3174 79.388 55.9199L54.7325 70.2381V60.325C54.7262 60.223 54.7737 60.1242 54.853 60.0604L75.2676 48.2157C84.3609 42.9404 95.9866 46.08 101.229 55.2282C103.444 59.0914 104.246 63.6145 103.495 68.0101H103.501ZM50.0924 85.6784L41.5538 80.7218C41.4619 80.6772 41.4016 80.5879 41.389 80.4859V56.7741C41.3953 46.2171 49.9117 37.6619 60.4091 37.6682C64.8495 37.6682 69.1474 39.2365 72.5609 42.0925C72.4056 42.1754 72.1394 42.3252 71.9619 42.4335L51.7659 54.1635C50.7326 54.7532 50.0987 55.8561 50.1051 57.0514L50.0924 85.672V85.6784ZM54.7293 75.625L65.7116 69.2468L76.6939 75.6218V88.375L65.7116 94.75L54.7293 88.375V75.625Z" fill="#6B7280"/>
</g>
<defs>
<clipPath id="clip0_19_345">
<rect width="374" height="102" fill="white" transform="translate(15 31)"/>
</clipPath>
</defs>
</svg>
