<svg width="618" height="163" viewBox="0 0 618 163" fill="none" xmlns="http://www.w3.org/2000/svg">
<g clip-path="url(#clip0_19_75)">
<path d="M173.488 91.9885C174.072 97.4411 179.035 106.788 193.44 106.788C205.994 106.788 212.029 98.8042 212.029 91.0149C212.029 84.0044 207.259 78.2598 197.819 76.3123L191.006 74.8519C188.379 74.3651 186.627 72.9046 186.627 70.5678C186.627 67.8414 189.352 65.7969 192.759 65.7969C198.208 65.7969 200.252 69.3993 200.642 72.2231L211.444 69.7889C210.861 64.6285 206.286 55.9629 192.661 55.9629C182.345 55.9629 174.754 63.0706 174.754 71.6388C174.754 78.357 178.938 83.9072 188.184 85.9517L194.51 87.4123C198.208 88.1911 199.668 89.9439 199.668 92.0859C199.668 94.6175 197.625 96.8569 193.342 96.8569C187.698 96.8569 184.875 93.3516 184.583 89.5543L173.488 91.9885Z" fill="#6B7280"/>
<path d="M253.394 105.328H265.755C265.56 103.672 265.268 100.362 265.268 96.6618V57.4231H252.323V85.2699C252.323 90.82 249.014 94.7146 243.273 94.7146C237.239 94.7146 234.513 90.4304 234.513 85.0752V57.4231H221.569V87.7042C221.569 98.1224 228.186 106.593 239.769 106.593C244.828 106.593 250.378 104.646 253.006 100.167C253.006 102.114 253.2 104.354 253.394 105.328Z" fill="#6B7280"/>
<path d="M292.026 123.827V100.654C294.361 103.867 299.228 106.496 305.847 106.496C319.374 106.496 328.424 95.7857 328.424 81.2781C328.424 67.0627 320.347 56.3523 306.333 56.3523C299.132 56.3523 293.779 59.5653 291.637 63.2654V57.4233H279.083V123.827H292.026ZM315.675 81.3755C315.675 89.944 310.421 94.9095 303.802 94.9095C297.185 94.9095 291.832 89.8465 291.832 81.3755C291.832 72.9047 297.185 67.9389 303.802 67.9389C310.421 67.9389 315.675 72.9047 315.675 81.3755Z" fill="#6B7280"/>
<path d="M335.755 92.2806C335.755 99.7779 341.983 106.691 352.203 106.691C359.306 106.691 363.881 103.38 366.313 99.583C366.313 101.433 366.508 104.062 366.8 105.328H378.673C378.381 103.673 378.091 100.265 378.091 97.7332V74.1703C378.091 64.531 372.446 55.9629 357.264 55.9629C344.416 55.9629 337.506 64.2389 336.728 71.7362L348.212 74.1703C348.601 69.9836 351.716 66.3811 357.359 66.3811C362.811 66.3811 365.438 69.2047 365.438 72.6125C365.438 74.2678 364.563 75.631 361.838 76.0204L350.062 77.773C342.081 78.9414 335.755 83.7123 335.755 92.2806ZM354.927 97.0516C350.743 97.0516 348.698 94.3253 348.698 91.5018C348.698 87.8018 351.325 85.9517 354.636 85.465L365.438 83.8097V85.9517C365.438 94.4228 360.377 97.0516 354.927 97.0516Z" fill="#6B7280"/>
<path d="M403.693 105.328V99.4859C406.222 103.575 411.283 106.496 417.902 106.496C431.529 106.496 440.482 95.6885 440.482 81.1809C440.482 66.9653 432.404 56.1576 418.389 56.1576C411.283 56.1576 406.029 59.2734 403.887 62.681V34.8342H391.138V105.328H403.693ZM427.537 81.2781C427.537 90.0412 422.282 94.9096 415.663 94.9096C409.143 94.9096 403.693 89.944 403.693 81.2781C403.693 72.5151 409.143 67.7442 415.663 67.7442C422.282 67.7442 427.537 72.5151 427.537 81.2781Z" fill="#6B7280"/>
<path d="M447.811 92.2806C447.811 99.7779 454.039 106.691 464.258 106.691C471.362 106.691 475.938 103.38 478.369 99.583C478.369 101.433 478.565 104.062 478.856 105.328H490.73C490.439 103.673 490.147 100.265 490.147 97.7332V74.1703C490.147 64.531 484.502 55.9629 469.319 55.9629C456.472 55.9629 449.563 64.2389 448.784 71.7362L460.267 74.1703C460.658 69.9836 463.772 66.3811 469.415 66.3811C474.867 66.3811 477.494 69.2047 477.494 72.6125C477.494 74.2678 476.619 75.631 473.893 76.0204L462.118 77.773C454.137 78.9414 447.811 83.7123 447.811 92.2806ZM466.984 97.0516C462.799 97.0516 460.754 94.3253 460.754 91.5018C460.754 87.8018 463.381 85.9517 466.692 85.465L477.494 83.8097V85.9517C477.494 94.4228 472.433 97.0516 466.984 97.0516Z" fill="#6B7280"/>
<path d="M499.107 91.9885C499.689 97.4411 504.654 106.788 519.057 106.788C531.612 106.788 537.646 98.8042 537.646 91.0149C537.646 84.0044 532.878 78.2598 523.437 76.3123L516.624 74.8519C513.996 74.3651 512.246 72.9046 512.246 70.5678C512.246 67.8414 514.97 65.7969 518.376 65.7969C523.828 65.7969 525.871 69.3993 526.261 72.2231L537.063 69.7889C536.479 64.6285 531.905 55.9629 518.28 55.9629C507.962 55.9629 500.372 63.0706 500.372 71.6388C500.372 78.357 504.556 83.9072 513.802 85.9517L520.129 87.4123C523.828 88.1911 525.287 89.9439 525.287 92.0859C525.287 94.6175 523.243 96.8569 518.961 96.8569C513.315 96.8569 510.494 93.3516 510.202 89.5543L499.107 91.9885Z" fill="#6B7280"/>
<path d="M557.305 75.9229C557.597 71.5415 561.296 66.4783 568.011 66.4783C575.407 66.4783 578.522 71.152 578.717 75.9229H557.305ZM579.983 88.386C578.425 92.67 575.116 95.6885 569.081 95.6885C562.658 95.6885 557.305 91.1122 557.014 84.7835H591.271C591.271 84.5885 591.465 82.6413 591.465 80.7913C591.465 65.4073 582.61 55.9629 567.816 55.9629C555.554 55.9629 544.263 65.8941 544.263 81.1808C544.263 97.3436 555.844 106.788 568.984 106.788C580.76 106.788 588.352 99.8752 590.785 91.599L579.983 88.386Z" fill="#6B7280"/>
<path d="M88.0631 134.356C85.2774 137.861 79.6292 135.941 79.5621 131.465L78.5806 65.999H122.633C130.612 65.999 135.062 75.208 130.1 81.4523L88.0631 134.356Z" fill="url(#paint0_linear_19_75)"/>
<path d="M88.0631 134.356C85.2774 137.861 79.6292 135.941 79.5621 131.465L78.5806 65.999H122.633C130.612 65.999 135.062 75.208 130.1 81.4523L88.0631 134.356Z" fill="#6B7280"/>
<path d="M70.1469 29.016C72.9326 25.5103 78.5809 27.4312 78.648 31.9072L79.0781 97.3729H35.5772C27.5979 97.3729 23.1477 88.164 28.1095 81.9197L70.1469 29.016Z" fill="#6B7280"/>
</g>
<defs>
<linearGradient id="paint0_linear_19_75" x1="78.5806" y1="80.5144" x2="117.724" y2="96.9434" gradientUnits="userSpaceOnUse">
<stop stop-color="#249361"/>
<stop offset="1" stop-color="#3ECF8E"/>
</linearGradient>
<clipPath id="clip0_19_75">
<rect width="566" height="110" fill="white" transform="translate(26 27)"/>
</clipPath>
</defs>
</svg>
